<svg xmlns="http://www.w3.org/2000/svg" xmlns:xlink="http://www.w3.org/1999/xlink" width="100" zoomAndPan="magnify" viewBox="0 0 75 74.999997" height="100" preserveAspectRatio="xMidYMid meet" version="1.0"><defs><clipPath id="5314474bcf"><path d="M 0.5625 0 L 74.8125 0 L 74.8125 75 L 0.5625 75 Z M 0.5625 0 " clip-rule="nonzero"/></clipPath></defs><rect x="-7.5" width="90" fill="#ffffff" y="-7.5" height="89.999996" fill-opacity="1"/><rect x="-7.5" width="90" fill="#ffffff" y="-7.5" height="89.999996" fill-opacity="1"/><path fill="#f26869" d="M 55.574219 7.214844 L 51 11.765625 L 37.628906 25.1875 L 24.140625 11.765625 L 19.566406 7.214844 L 9.59375 7.214844 L 9.59375 36.390625 L 19.683594 44.445312 L 19.683594 21.101562 L 37.628906 38.375 L 55.574219 21.101562 L 55.574219 44.445312 L 65.664062 36.390625 L 65.664062 7.214844 Z M 55.574219 7.214844 " fill-opacity="1" fill-rule="nonzero"/><path fill="#d3d6de" d="M 73.875 73.96875 L 1.382812 73.96875 L 34.578125 47.59375 C 36.339844 46.195312 38.917969 46.195312 40.796875 47.59375 Z M 73.875 73.96875 " fill-opacity="1" fill-rule="nonzero"/><g clip-path="url(#5314474bcf)"><path fill="#010101" d="M 74.695312 73.855469 L 74.695312 29.855469 C 74.695312 29.738281 74.695312 29.738281 74.695312 29.621094 C 74.695312 29.390625 74.578125 29.273438 74.34375 29.15625 L 66.601562 22.96875 L 66.601562 7.214844 C 66.601562 6.746094 66.25 6.28125 65.664062 6.28125 C 59.679688 6.28125 51.585938 6.28125 45.605469 6.28125 L 38.097656 0.328125 C 37.746094 0.09375 37.277344 0.09375 37.042969 0.328125 L 29.535156 6.28125 C 22.613281 6.28125 16.632812 6.28125 9.59375 6.28125 L 9.476562 6.28125 C 9.007812 6.398438 8.65625 6.746094 8.65625 7.214844 L 8.65625 22.96875 L 8.304688 23.320312 L 0.796875 29.273438 C 0.796875 29.273438 0.679688 29.390625 0.679688 29.390625 C 0.5625 29.503906 0.5625 29.621094 0.5625 29.738281 C 0.5625 29.738281 0.5625 29.855469 0.5625 29.972656 L 0.5625 74.085938 C 0.5625 74.085938 0.5625 74.203125 0.5625 74.203125 C 0.5625 74.203125 0.5625 74.320312 0.5625 74.320312 C 0.5625 74.4375 0.679688 74.554688 0.679688 74.554688 C 0.679688 74.554688 0.796875 74.671875 0.796875 74.671875 C 0.796875 74.671875 0.914062 74.789062 1.03125 74.789062 C 1.265625 74.90625 1.265625 74.90625 1.382812 74.90625 L 73.875 74.90625 C 73.992188 74.90625 74.109375 74.90625 74.226562 74.789062 C 74.34375 74.789062 74.34375 74.671875 74.460938 74.671875 C 74.695312 74.554688 74.8125 74.320312 74.8125 73.96875 C 74.695312 73.96875 74.695312 73.96875 74.695312 73.855469 Z M 72.464844 29.855469 L 66.71875 34.523438 L 66.71875 25.304688 L 71.410156 29.039062 Z M 37.628906 2.195312 L 42.90625 6.398438 L 32.351562 6.398438 Z M 45.136719 8.148438 C 45.488281 8.265625 43.84375 8.148438 53.464844 8.148438 L 37.628906 24.019531 L 21.792969 8.148438 Z M 19.214844 8.148438 L 37.042969 25.886719 C 37.394531 26.238281 37.980469 26.238281 38.332031 25.886719 L 55.925781 8.148438 L 64.726562 8.148438 L 64.726562 36.042969 C 64.609375 36.15625 55.925781 43.042969 56.398438 42.578125 L 56.398438 21.101562 C 56.398438 20.753906 56.160156 20.402344 55.808594 20.285156 C 55.691406 20.285156 55.574219 20.167969 55.457031 20.167969 C 55.222656 20.167969 54.988281 20.285156 54.871094 20.402344 L 37.628906 37.089844 L 20.269531 20.519531 C 20.035156 20.285156 19.683594 20.167969 19.332031 20.402344 C 18.976562 20.519531 18.742188 20.871094 18.742188 21.21875 L 18.742188 42.695312 C 18.625 42.578125 13.464844 38.492188 13.699219 38.726562 L 10.414062 36.042969 L 10.414062 8.148438 Z M 46.074219 50.863281 L 41.265625 47.011719 C 39.152344 45.378906 36.105469 45.378906 33.992188 47.011719 L 29.183594 50.863281 L 20.503906 43.976562 L 20.503906 23.203125 L 37.042969 39.074219 C 37.394531 39.425781 37.980469 39.425781 38.214844 39.074219 L 54.753906 23.203125 L 54.753906 43.976562 Z M 8.65625 25.304688 L 8.65625 34.523438 L 2.910156 29.855469 Z M 27.660156 51.914062 L 2.320312 72.21875 L 2.320312 31.722656 C 2.085938 31.488281 27.1875 51.5625 27.660156 51.914062 Z M 3.964844 73.152344 C 4.082031 73.035156 35.28125 48.296875 35.164062 48.296875 C 36.574219 47.128906 38.800781 47.128906 40.210938 48.296875 C 40.328125 48.410156 46.542969 53.3125 46.191406 52.964844 L 71.410156 73.035156 L 3.964844 73.035156 Z M 47.480469 51.914062 C 47.597656 51.796875 73.171875 31.488281 72.9375 31.605469 L 72.9375 72.101562 Z M 47.480469 51.914062 " fill-opacity="1" fill-rule="nonzero"/></g></svg>