<svg xmlns="http://www.w3.org/2000/svg" xmlns:xlink="http://www.w3.org/1999/xlink" width="100" zoomAndPan="magnify" viewBox="0 0 75 74.999997" height="100" preserveAspectRatio="xMidYMid meet" version="1.0"><defs><clipPath id="69780b42c5"><path d="M 4.6875 0 L 70.6875 0 L 70.6875 75 L 4.6875 75 Z M 4.6875 0 " clip-rule="nonzero"/></clipPath></defs><rect x="-7.5" width="90" fill="#ffffff" y="-7.5" height="89.999996" fill-opacity="1"/><rect x="-7.5" width="90" fill="#ffffff" y="-7.5" height="89.999996" fill-opacity="1"/><g clip-path="url(#69780b42c5)"><path fill="#e44d26" d="M 10.742188 67.21875 L 4.746094 0.355469 L 70.628906 0.355469 L 64.625 67.207031 L 37.648438 74.644531 Z M 10.742188 67.21875 " fill-opacity="1" fill-rule="nonzero"/></g><path fill="#f16529" d="M 37.6875 68.960938 L 59.488281 62.953125 L 64.617188 5.820312 L 37.6875 5.820312 Z M 37.6875 68.960938 " fill-opacity="1" fill-rule="nonzero"/><path fill="#ebebeb" d="M 37.6875 30.621094 L 26.773438 30.621094 L 26.019531 22.222656 L 37.6875 22.222656 L 37.6875 14.023438 L 17.007812 14.023438 L 17.203125 16.222656 L 19.230469 38.820312 L 37.6875 38.820312 Z M 37.6875 51.917969 L 37.648438 51.929688 L 28.464844 49.460938 L 27.878906 42.921875 L 19.601562 42.921875 L 20.753906 55.796875 L 37.648438 60.460938 L 37.6875 60.449219 Z M 37.6875 51.917969 " fill-opacity="1" fill-rule="nonzero"/><path fill="#ffffff" d="M 37.660156 30.621094 L 37.660156 38.820312 L 47.816406 38.820312 L 46.855469 49.457031 L 37.65625 51.925781 L 37.65625 60.457031 L 54.5625 55.796875 L 54.6875 54.410156 L 56.628906 32.820312 L 56.832031 30.617188 L 54.609375 30.617188 Z M 37.660156 14.023438 L 37.660156 22.222656 L 57.582031 22.222656 L 57.746094 20.378906 L 58.121094 16.222656 L 58.320312 14.019531 Z M 37.660156 14.023438 " fill-opacity="1" fill-rule="nonzero"/></svg>