<svg xmlns="http://www.w3.org/2000/svg" xmlns:xlink="http://www.w3.org/1999/xlink" width="100" zoomAndPan="magnify" viewBox="0 0 75 74.999997" height="100" preserveAspectRatio="xMidYMid meet" version="1.0"><rect x="-7.5" width="90" fill="#ffffff" y="-7.5" height="89.999996" fill-opacity="1"/><rect x="-7.5" width="90" fill="#ffffff" y="-7.5" height="89.999996" fill-opacity="1"/><path fill="#00d8ff" d="M 61.636719 25.738281 C 60.839844 25.464844 60.035156 25.210938 59.226562 24.976562 C 59.359375 24.421875 59.488281 23.875 59.597656 23.335938 C 61.425781 14.480469 60.230469 7.34375 56.152344 4.996094 C 52.242188 2.742188 45.84375 5.089844 39.386719 10.707031 C 38.75 11.261719 38.125 11.832031 37.519531 12.417969 C 37.113281 12.027344 36.699219 11.644531 36.277344 11.269531 C 29.507812 5.269531 22.71875 2.738281 18.644531 5.09375 C 14.738281 7.351562 13.582031 14.058594 15.226562 22.453125 C 15.390625 23.28125 15.574219 24.109375 15.78125 24.933594 C 14.820312 25.203125 13.894531 25.496094 13.007812 25.804688 C 5.070312 28.566406 0 32.898438 0 37.390625 C 0 42.03125 5.441406 46.683594 13.707031 49.503906 C 14.378906 49.734375 15.054688 49.945312 15.734375 50.136719 C 15.515625 51.023438 15.316406 51.914062 15.148438 52.8125 C 13.578125 61.058594 14.804688 67.605469 18.699219 69.851562 C 22.726562 72.167969 29.480469 69.785156 36.058594 64.042969 C 36.589844 63.578125 37.113281 63.097656 37.621094 62.605469 C 38.28125 63.238281 38.957031 63.855469 39.648438 64.449219 C 46.019531 69.925781 52.3125 72.136719 56.207031 69.886719 C 60.226562 67.5625 61.535156 60.527344 59.835938 51.96875 C 59.703125 51.296875 59.554688 50.632812 59.386719 49.96875 C 59.863281 49.828125 60.328125 49.683594 60.78125 49.53125 C 69.375 46.6875 74.96875 42.089844 74.96875 37.390625 C 74.96875 32.882812 69.734375 28.519531 61.636719 25.738281 Z M 59.773438 46.496094 C 59.363281 46.632812 58.945312 46.761719 58.515625 46.890625 C 57.566406 43.890625 56.285156 40.703125 54.71875 37.40625 C 56.214844 34.1875 57.445312 31.039062 58.367188 28.058594 C 59.132812 28.28125 59.878906 28.515625 60.597656 28.761719 C 67.535156 31.148438 71.765625 34.671875 71.765625 37.390625 C 71.765625 40.285156 67.195312 44.042969 59.773438 46.496094 Z M 56.695312 52.589844 C 57.445312 56.375 57.550781 59.796875 57.054688 62.472656 C 56.609375 64.875 55.710938 66.476562 54.601562 67.117188 C 52.238281 68.484375 47.1875 66.710938 41.738281 62.027344 C 41.09375 61.472656 40.464844 60.898438 39.851562 60.308594 C 41.964844 58.003906 44.074219 55.320312 46.136719 52.34375 C 49.761719 52.019531 53.183594 51.496094 56.289062 50.777344 C 56.4375 51.378906 56.574219 51.984375 56.695312 52.589844 Z M 25.558594 66.882812 C 23.25 67.695312 21.410156 67.71875 20.300781 67.078125 C 17.933594 65.71875 16.953125 60.460938 18.292969 53.40625 C 18.453125 52.574219 18.636719 51.746094 18.839844 50.921875 C 21.910156 51.601562 25.308594 52.089844 28.941406 52.382812 C 31.015625 55.296875 33.191406 57.976562 35.378906 60.324219 C 34.914062 60.773438 34.4375 61.210938 33.949219 61.636719 C 31.042969 64.175781 28.125 65.976562 25.558594 66.882812 Z M 14.746094 46.480469 C 11.089844 45.230469 8.070312 43.609375 6 41.839844 C 4.140625 40.25 3.203125 38.671875 3.203125 37.390625 C 3.203125 34.664062 7.273438 31.1875 14.058594 28.824219 C 14.882812 28.535156 15.746094 28.265625 16.640625 28.011719 C 17.578125 31.058594 18.808594 34.246094 20.292969 37.46875 C 18.789062 40.738281 17.542969 43.972656 16.59375 47.058594 C 15.972656 46.878906 15.355469 46.6875 14.746094 46.480469 Z M 18.371094 21.835938 C 16.960938 14.648438 17.894531 9.222656 20.25 7.863281 C 22.757812 6.410156 28.304688 8.480469 34.148438 13.664062 C 34.53125 14 34.90625 14.347656 35.273438 14.699219 C 33.097656 17.035156 30.945312 19.695312 28.886719 22.589844 C 25.363281 22.917969 21.988281 23.441406 18.882812 24.144531 C 18.695312 23.378906 18.523438 22.609375 18.371094 21.835938 Z M 50.707031 29.8125 C 49.972656 28.546875 49.214844 27.300781 48.425781 26.066406 C 50.820312 26.371094 53.109375 26.769531 55.261719 27.261719 C 54.617188 29.328125 53.8125 31.492188 52.863281 33.707031 C 52.171875 32.394531 51.453125 31.097656 50.707031 29.8125 Z M 37.519531 16.984375 C 38.996094 18.582031 40.476562 20.367188 41.929688 22.304688 C 38.980469 22.164062 36.023438 22.164062 33.070312 22.300781 C 34.527344 20.382812 36.019531 18.601562 37.519531 16.984375 Z M 24.246094 29.832031 C 23.511719 31.109375 22.808594 32.398438 22.132812 33.707031 C 21.199219 31.496094 20.402344 29.324219 19.75 27.226562 C 21.886719 26.75 24.167969 26.359375 26.546875 26.0625 C 25.75 27.300781 24.984375 28.558594 24.246094 29.832031 Z M 26.613281 48.945312 C 24.160156 48.671875 21.84375 48.300781 19.707031 47.835938 C 20.367188 45.703125 21.183594 43.484375 22.136719 41.226562 C 22.8125 42.535156 23.523438 43.828125 24.261719 45.101562 C 25.019531 46.410156 25.808594 47.695312 26.613281 48.945312 Z M 37.609375 58.019531 C 36.089844 56.386719 34.574219 54.574219 33.097656 52.628906 C 34.53125 52.6875 35.996094 52.714844 37.484375 52.714844 C 39.011719 52.714844 40.523438 52.679688 42.007812 52.613281 C 40.550781 54.59375 39.074219 56.40625 37.609375 58.019531 Z M 52.894531 41.113281 C 53.894531 43.394531 54.742188 45.601562 55.410156 47.699219 C 53.238281 48.195312 50.890625 48.59375 48.417969 48.886719 C 49.210938 47.632812 49.976562 46.363281 50.71875 45.078125 C 51.472656 43.773438 52.199219 42.449219 52.894531 41.113281 Z M 47.945312 43.480469 C 46.808594 45.453125 45.609375 47.382812 44.347656 49.277344 C 42.0625 49.4375 39.773438 49.519531 37.484375 49.515625 C 35.152344 49.515625 32.882812 49.445312 30.695312 49.300781 C 29.402344 47.414062 28.179688 45.480469 27.03125 43.5 C 25.890625 41.527344 24.824219 39.515625 23.832031 37.464844 C 24.820312 35.414062 25.882812 33.402344 27.023438 31.429688 C 28.160156 29.460938 29.371094 27.53125 30.65625 25.652344 C 32.886719 25.484375 35.171875 25.394531 37.484375 25.394531 C 39.804688 25.394531 42.09375 25.484375 44.324219 25.65625 C 45.59375 27.53125 46.800781 29.453125 47.933594 31.414062 C 49.078125 33.382812 50.15625 35.382812 51.167969 37.421875 C 50.164062 39.480469 49.089844 41.5 47.945312 43.480469 Z M 54.550781 7.765625 C 57.0625 9.210938 58.039062 15.042969 56.460938 22.6875 C 56.359375 23.175781 56.246094 23.671875 56.125 24.175781 C 53.015625 23.460938 49.636719 22.925781 46.101562 22.59375 C 44.039062 19.667969 41.90625 17.003906 39.761719 14.699219 C 40.324219 14.15625 40.898438 13.628906 41.488281 13.117188 C 47.023438 8.308594 52.195312 6.410156 54.550781 7.765625 Z M 37.484375 30.703125 C 41.179688 30.703125 44.179688 33.699219 44.179688 37.390625 C 44.179688 41.082031 41.179688 44.074219 37.484375 44.074219 C 33.785156 44.074219 30.789062 41.082031 30.789062 37.390625 C 30.789062 33.699219 33.785156 30.703125 37.484375 30.703125 Z M 37.484375 30.703125 " fill-opacity="1" fill-rule="nonzero"/></svg>